{
  "accessors": [
    {
      "bufferView": 2,
      "componentType": 5126,
      "count": 23722,
      "max": [
        -7.0966291427612305,
        112.83584594726562,
        8.7220344543457031
      ],
      "min": [
        -7.19427490234375,
        112.77105712890625,
        8.5255365371704102
      ],
      "type": "VEC3"
    },
    {
      "bufferView": 2,
      "byteOffset": 284664,
      "componentType": 5126,
      "count": 23722,
      "max": [
        0.99998646974563599,
        0.99999719858169556,
        0.99998903274536133
      ],
      "min": [
        -0.99999260902404785,
        -0.99999618530273438,
        -0.99982917308807373
      ],
      "type": "VEC3"
    },
    {
      "bufferView": 3,
      "componentType": 5126,
      "count": 23722,
      "max": [
        0.99973076581954956,
        0.99999970197677612,
        0.99999874830245972,
        1
      ],
      "min": [
        -0.99963670969009399,
        -0.99999094009399414,
        -0.99999499320983887,
        -1
      ],
      "type": "VEC4"
    },
    {
      "bufferView": 1,
      "componentType": 5126,
      "count": 23722,
      "max": [
        0.9995110034942627,
        0.98779302835464478
      ],
      "min": [
        0.00048799999058246613,
        0.00048799999058246613
      ],
      "type": "VEC2"
    },
    {
      "bufferView": 0,
      "componentType": 5125,
      "count": 90000,
      "max": [
        23721
      ],
      "min": [
        0
      ],
      "type": "SCALAR"
    }
  ],
  "asset": {
    "extras": {
      "author": "Zdenko Roman (https://sketchfab.com/zdenkoroman)",
      "license": "CC-BY-4.0 (http://creativecommons.org/licenses/by/4.0/)",
      "source": "https://sketchfab.com/3d-models/mcqueen-toy-car-3d-scan-215a722160ed4c08b9e362ad2682c733",
      "title": "McQueen Toy Car 3D Scan"
    },
    "generator": "Sketchfab-7.38.0",
    "version": "2.0"
  },
  "bufferViews": [
    {
      "buffer": 0,
      "byteLength": 360000,
      "byteOffset": 0,
      "name": "floatBufferViews",
      "target": 34963
    },
    {
      "buffer": 0,
      "byteLength": 189776,
      "byteOffset": 360000,
      "byteStride": 8,
      "name": "floatBufferViews",
      "target": 34962
    },
    {
      "buffer": 0,
      "byteLength": 569328,
      "byteOffset": 549776,
      "byteStride": 12,
      "name": "floatBufferViews",
      "target": 34962
    },
    {
      "buffer": 0,
      "byteLength": 379552,
      "byteOffset": 1119104,
      "byteStride": 16,
      "name": "floatBufferViews",
      "target": 34962
    }
  ],
  "buffers": [
    {
      "byteLength": 1498656,
      "uri": "scene.bin"
    }
  ],
  "images": [
    {
      "uri": "textures/material_0_baseColor.png"
    },
    {
      "uri": "textures/material_0_normal.png"
    }
  ],
  "materials": [
    {
      "doubleSided": true,
      "name": "material_0",
      "normalTexture": {
        "index": 1,
        "scale": 1,
        "texCoord": 0
      },
      "pbrMetallicRoughness": {
        "baseColorFactor": [
          1,
          1,
          1,
          1
        ],
        "baseColorTexture": {
          "index": 0,
          "texCoord": 0
        },
        "metallicFactor": 0,
        "roughnessFactor": 0.19683689024390244
      }
    }
  ],
  "meshes": [
    {
      "primitives": [
        {
          "attributes": {
            "NORMAL": 1,
            "POSITION": 0,
            "TANGENT": 2,
            "TEXCOORD_0": 3
          },
          "indices": 4,
          "material": 0,
          "mode": 4
        }
      ]
    }
  ],
  "nodes": [
    {
      "children": [
        1
      ],
      "name": "RootNode (gltf orientation matrix)",
      "rotation": [
        -0.70710678118654746,
        -0,
        -0,
        0.70710678118654757
      ]
    },
    {
      "children": [
        2
      ],
      "matrix": [
        0.9998394250869751,
        0,
        -0.01792009174823761,
        0,
        -0.01792009174823761,
        -5.2326307349581658e-16,
        -0.9998394250869751,
        0,
        -5.2041704279304213e-18,
        1,
        -5.232088633871923e-16,
        0,
        2.0202996730804443,
        104.17959594726562,
        121.28101348876953,
        1
      ],
      "name": "RootNode (model correction matrix)"
    },
    {
      "children": [
        3
      ],
      "name": "export_low_poly.obj.cleaner.materialmerger.gles"
    },
    {
      "mesh": 0,
      "name": ""
    }
  ],
  "samplers": [
    {
      "magFilter": 9729,
      "minFilter": 9987,
      "wrapS": 10497,
      "wrapT": 10497
    }
  ],
  "scene": 0,
  "scenes": [
    {
      "name": "OSG_Scene",
      "nodes": [
        0
      ]
    }
  ],
  "textures": [
    {
      "sampler": 0,
      "source": 0
    },
    {
      "sampler": 0,
      "source": 1
    }
  ]
}

